<?xml version="1.0" encoding="UTF-8"?>
<svg id="Layer_1" data-name="Layer 1" xmlns="http://www.w3.org/2000/svg" xmlns:xlink="http://www.w3.org/1999/xlink" viewBox="0 0 154.99 154.96">
  <defs>
    <style>
      .cls-1 {
        fill: url(#linear-gradient-12);
      }

      .cls-1, .cls-2, .cls-3, .cls-4, .cls-5, .cls-6, .cls-7, .cls-8, .cls-9, .cls-10, .cls-11, .cls-12, .cls-13, .cls-14, .cls-15, .cls-16, .cls-17, .cls-18, .cls-19, .cls-20, .cls-21 {
        stroke-width: 0px;
      }

      .cls-2 {
        fill: url(#linear-gradient-17);
      }

      .cls-3 {
        fill: url(#linear-gradient-19);
      }

      .cls-4 {
        fill: url(#linear-gradient);
      }

      .cls-5 {
        fill: #000;
      }

      .cls-22 {
        opacity: .5;
      }

      .cls-6 {
        fill: url(#linear-gradient-6);
      }

      .cls-7 {
        fill: url(#linear-gradient-15);
      }

      .cls-8 {
        fill: url(#linear-gradient-11);
      }

      .cls-9 {
        fill: url(#linear-gradient-5);
      }

      .cls-10 {
        fill: url(#linear-gradient-13);
      }

      .cls-11 {
        fill: url(#linear-gradient-16);
      }

      .cls-12 {
        fill: url(#linear-gradient-20);
      }

      .cls-13 {
        fill: url(#linear-gradient-14);
      }

      .cls-14 {
        fill: url(#linear-gradient-2);
      }

      .cls-15 {
        fill: url(#linear-gradient-7);
      }

      .cls-16 {
        fill: url(#linear-gradient-3);
      }

      .cls-17 {
        fill: url(#linear-gradient-9);
      }

      .cls-18 {
        fill: url(#linear-gradient-8);
      }

      .cls-19 {
        fill: url(#linear-gradient-18);
      }

      .cls-20 {
        fill: url(#linear-gradient-10);
      }

      .cls-21 {
        fill: url(#linear-gradient-4);
      }
    </style>
    <linearGradient id="linear-gradient" x1="32.8" y1="92.4" x2="50.42" y2="110.03" gradientUnits="userSpaceOnUse">
      <stop offset="0" stop-color="#4c3ade"/>
      <stop offset=".25" stop-color="#6e39e1"/>
      <stop offset=".81" stop-color="#c537eb"/>
      <stop offset="1" stop-color="#e437ef"/>
    </linearGradient>
    <linearGradient id="linear-gradient-2" x1="51.22" y1="117.66" x2="52.25" y2="117.66" gradientUnits="userSpaceOnUse">
      <stop offset="0" stop-color="#4c3ade"/>
      <stop offset="0" stop-color="#4c39de"/>
      <stop offset=".11" stop-color="#7439e2"/>
      <stop offset=".22" stop-color="#9638e6"/>
      <stop offset=".34" stop-color="#b237e9"/>
      <stop offset=".47" stop-color="#c837eb"/>
      <stop offset=".61" stop-color="#d837ed"/>
      <stop offset=".77" stop-color="#e137ee"/>
      <stop offset="1" stop-color="#e437ef"/>
    </linearGradient>
    <linearGradient id="linear-gradient-3" x1="44.45" y1="105.39" x2="69.99" y2="130.93" xlink:href="#linear-gradient-2"/>
    <linearGradient id="linear-gradient-4" x1="34.53" y1="99.85" x2="35.56" y2="99.85" xlink:href="#linear-gradient-2"/>
    <linearGradient id="linear-gradient-5" x1="54.41" y1="117.01" x2="55.44" y2="117.01" xlink:href="#linear-gradient-2"/>
    <linearGradient id="linear-gradient-6" x1="54.7" y1="117.07" x2="64.21" y2="126.58" xlink:href="#linear-gradient-2"/>
    <linearGradient id="linear-gradient-7" x1="72.2" y1="54.29" x2="89.83" y2="71.92" gradientTransform="translate(38.72 -38.21) rotate(91.23) scale(1 -1)" xlink:href="#linear-gradient"/>
    <linearGradient id="linear-gradient-8" x1="90.63" y1="37.07" x2="91.66" y2="37.07" gradientTransform="translate(155.31 -35.69) rotate(91.23)" xlink:href="#linear-gradient-2"/>
    <linearGradient id="linear-gradient-9" x1="83.86" y1="67.28" x2="109.4" y2="92.82" gradientTransform="translate(38.72 -38.21) rotate(91.23) scale(1 -1)" xlink:href="#linear-gradient-2"/>
    <linearGradient id="linear-gradient-10" x1="73.94" y1="54.88" x2="74.97" y2="54.88" gradientTransform="translate(155.31 -35.69) rotate(91.23)" xlink:href="#linear-gradient-2"/>
    <linearGradient id="linear-gradient-11" x1="93.82" y1="37.72" x2="94.85" y2="37.72" gradientTransform="translate(155.31 -35.69) rotate(91.23)" xlink:href="#linear-gradient-2"/>
    <linearGradient id="linear-gradient-12" x1="94.11" y1="78.96" x2="103.61" y2="88.47" gradientTransform="translate(38.72 -38.21) rotate(91.23) scale(1 -1)" xlink:href="#linear-gradient-2"/>
    <linearGradient id="linear-gradient-13" x1="116.98" y1="97.29" x2="118.19" y2="97.29" xlink:href="#linear-gradient"/>
    <linearGradient id="linear-gradient-14" x1="117.87" y1="86.9" x2="132.79" y2="86.9" xlink:href="#linear-gradient"/>
    <linearGradient id="linear-gradient-15" x1="96.83" y1="120.38" x2="98.04" y2="120.38" xlink:href="#linear-gradient"/>
    <linearGradient id="linear-gradient-16" x1="76.95" y1="128.12" x2="97.13" y2="128.12" xlink:href="#linear-gradient"/>
    <linearGradient id="linear-gradient-17" x1="113.12" y1="107.37" x2="114.15" y2="107.37" xlink:href="#linear-gradient"/>
    <linearGradient id="linear-gradient-18" x1="74.68" y1="120.36" x2="113.37" y2="120.36" xlink:href="#linear-gradient"/>
    <linearGradient id="linear-gradient-19" x1="103.12" y1="113.59" x2="104.15" y2="113.59" xlink:href="#linear-gradient"/>
    <linearGradient id="linear-gradient-20" x1="103.87" y1="93.99" x2="129.39" y2="93.99" xlink:href="#linear-gradient"/>
  </defs>
  <path class="cls-5" d="M77.68,139.04c-7,0-14-2.66-19.32-7.99l-31.58-31.58c-10.65-10.66-10.65-27.99,0-38.65l1.12-1.12c1.18-1.18,3.09-1.18,4.27,0l6.93,6.93c1.18,1.18,1.18,3.09,0,4.27l-1.12,1.12c-4.48,4.48-4.48,11.77,0,16.24l31.58,31.58c4.48,4.48,11.77,4.48,16.24,0l31.58-31.58c4.48-4.48,4.48-11.77,0-16.24l-31.58-31.58c-4.48-4.48-11.77-4.48-16.24,0l-16.93,16.93c-1.18,1.18-3.09,1.18-4.27,0l-6.93-6.93c-1.18-1.18-1.18-3.09,0-4.27l16.93-16.93c10.66-10.66,27.99-10.65,38.65,0l31.58,31.58c10.65,10.66,10.65,27.99,0,38.65l-31.58,31.58c-5.33,5.33-12.33,7.99-19.32,7.99Z"/>
  <g class="cls-22">
    <g>
      <polygon class="cls-4" points="42.36 107.57 42.55 101.26 26.75 83.03 26.84 80.03 26.66 79.86 26.57 83.1 42.37 101.33 42.18 107.63 51.37 117.39 51.5 117.27 42.36 107.57"/>
      <path class="cls-14" d="M51.38,117.28c-.21.19-.21.52-.02.73s.52.22.73.02.21-.52.02-.73-.52-.22-.73-.02ZM51.97,117.9c-.13.13-.35.12-.48-.02s-.12-.35.01-.48.35-.12.48.02.12.35-.01.48Z"/>
    </g>
    <g>
      <path class="cls-16" d="M71.41,128.9l-14.78-15.68-6.6-.23-6.29-6.68-2.55-.1-5.76-6.11-.13.12,5.81,6.17,2.55.1,6.29,6.68,6.6.23,14.71,15.61s.1-.07.15-.1Z"/>
      <path class="cls-21" d="M35.4,100.22c-.21.19-.53.18-.73-.02s-.19-.54.02-.73.53-.18.73.02.19.54-.02.73ZM34.81,99.6c-.13.13-.14.34-.01.48s.34.14.48.02.14-.34.01-.48-.34-.14-.48-.02Z"/>
    </g>
    <g>
      <path class="cls-9" d="M55.28,117.39c-.21.19-.53.18-.73-.02s-.19-.54.02-.73.53-.18.73.02.19.54-.02.73ZM54.69,116.77c-.13.13-.14.34-.01.48s.34.14.48.02.14-.34.01-.48-.34-.14-.48-.02Z"/>
      <path class="cls-6" d="M64.52,127.05l-9.23-9.78-.13.12,9.2,9.76s.1-.07.15-.1Z"/>
    </g>
  </g>
  <g class="cls-22">
    <g>
      <polygon class="cls-15" points="106.4 45.04 100.09 45.09 82.21 28.91 79.2 28.92 79.03 28.75 82.28 28.73 100.16 44.91 106.47 44.86 116.02 54.26 115.9 54.39 106.4 45.04"/>
      <path class="cls-18" d="M115.91,54.26c.2-.2.53-.2.73,0s.21.53,0,.73-.53.2-.73,0-.21-.53,0-.73ZM116.52,54.86c.13-.13.13-.35,0-.48s-.35-.13-.48,0-.13.35,0,.48.35.13.48,0Z"/>
    </g>
    <g>
      <path class="cls-17" d="M127.1,74.54l-15.36-15.12-.09-6.6-6.54-6.44-.04-2.55-5.99-5.89.13-.13,6.04,5.95.04,2.55,6.54,6.44.09,6.6,15.28,15.05s-.07.1-.11.14Z"/>
      <path class="cls-20" d="M99.21,37.92c.2-.2.19-.53,0-.73s-.53-.2-.73,0-.19.53,0,.73.53.2.73,0ZM98.6,37.32c.13-.13.34-.13.48,0s.14.34,0,.48-.34.13-.48,0-.14-.34,0-.48Z"/>
    </g>
    <g>
      <path class="cls-8" d="M115.94,58.17c.2-.2.19-.53,0-.73s-.53-.2-.73,0-.19.53,0,.73.53.2.73,0ZM115.33,57.56c.13-.13.34-.13.48,0s.14.34,0,.48-.34.13-.48,0-.14-.34,0-.48Z"/>
      <path class="cls-1" d="M125.4,67.62l-9.58-9.43.13-.13,9.56,9.41s-.07.1-.1.15Z"/>
    </g>
  </g>
  <g class="cls-22">
    <g>
      <path class="cls-10" d="M118.01,96.86c.23.23.23.62,0,.85s-.62.24-.85,0-.23-.62,0-.85.62-.24.85,0ZM117.31,97.56c.15.15.4.15.56,0s.16-.4,0-.56-.4-.15-.56,0-.16.4,0,.56Z"/>
      <path class="cls-13" d="M132.59,76.81h-.01s-.05,5.37-.05,5.37l-14.67,14.67.15.15,14.73-14.73.05-5.31c-.07-.05-.13-.09-.2-.14Z"/>
    </g>
    <g>
      <path class="cls-7" d="M97,120.81c.23.23.62.23.85,0s.24-.62,0-.85-.62-.23-.85,0-.24.62,0,.85ZM97.71,120.1c.15.15.15.4,0,.56s-.4.16-.56,0-.15-.4,0-.56.4-.16.56,0Z"/>
      <path class="cls-11" d="M76.95,135.39h.01s5.36-.06,5.36-.06l14.67-14.67.15.15-14.73,14.73-5.31.05c-.05-.07-.09-.13-.14-.2Z"/>
    </g>
    <g>
      <path class="cls-2" d="M113.26,107.73c.2.2.52.21.73.01s.21-.53.02-.73-.52-.21-.73-.01-.21.53-.02.73ZM113.88,107.13c.13.13.12.35-.01.48s-.35.13-.48,0-.12-.35.01-.48.35-.13.48,0Z"/>
      <polygon class="cls-19" points="103.65 116.85 97.34 116.73 80.81 132.94 74.85 132.89 74.68 133.07 80.88 133.12 97.41 116.91 103.72 117.03 113.37 107.73 113.25 107.6 103.65 116.85"/>
    </g>
    <g>
      <path class="cls-3" d="M104,113.22c.2.2.21.52.01.73s-.53.21-.73.02-.21-.52-.01-.73.53-.21.73-.02ZM103.4,113.84c.13.13.35.12.48-.01s.13-.35,0-.48-.35-.12-.48.01-.13.35,0,.48Z"/>
      <polygon class="cls-12" points="113.12 103.61 113 97.3 129.21 80.77 129.16 74.81 129.34 74.64 129.39 80.84 113.18 97.37 113.3 103.68 104 113.33 103.87 113.21 113.12 103.61"/>
    </g>
  </g>
</svg>