<?xml version="1.0" encoding="UTF-8"?>
<svg id="Layer_1" data-name="Layer 1" xmlns="http://www.w3.org/2000/svg" viewBox="0 0 451.15 228.87">
  <defs>
    <style>
      .cls-1 {
        letter-spacing: .08em;
      }

      .cls-2, .cls-3 {
        fill: #000;
      }

      .cls-2, .cls-4 {
        stroke-width: 0px;
      }

      .cls-5 {
        letter-spacing: .07em;
      }

      .cls-6 {
        opacity: .2;
      }

      .cls-3 {
        font-family: Hellix-Medium, Hellix;
        font-size: 66.57px;
        font-weight: 500;
      }

      .cls-7 {
        letter-spacing: .03em;
      }

      .cls-4 {
        fill: #fff;
      }

      .cls-8 {
        letter-spacing: .06em;
      }
    </style>
  </defs>
  <text class="cls-3" transform="translate(41.96 202.66)"><tspan class="cls-5" x="0" y="0">E</tspan><tspan class="cls-8" x="39.87" y="0">N</tspan><tspan class="cls-1" x="89.78" y="0">YUT</tspan><tspan class="cls-7" x="232.1" y="0">E</tspan><tspan class="cls-1" x="269.31" y="0">CH</tspan></text>
  <g>
    <path class="cls-2" d="M225.58,140.12c-7,0-14-2.66-19.32-7.99l-31.58-31.58c-10.65-10.66-10.65-27.99,0-38.65l1.12-1.12c1.18-1.18,3.09-1.18,4.27,0l6.93,6.93c1.18,1.18,1.18,3.09,0,4.27l-1.12,1.12c-4.48,4.48-4.48,11.77,0,16.24l31.58,31.58c4.48,4.48,11.77,4.48,16.24,0l31.58-31.58c4.48-4.48,4.48-11.77,0-16.24l-31.58-31.58c-4.48-4.48-11.77-4.48-16.24,0l-16.93,16.93c-1.18,1.18-3.09,1.18-4.27,0l-6.93-6.93c-1.18-1.18-1.18-3.09,0-4.27l16.93-16.93c10.66-10.66,27.99-10.65,38.65,0l31.58,31.58c10.65,10.66,10.65,27.99,0,38.65l-31.58,31.58c-5.33,5.33-12.33,7.99-19.32,7.99Z"/>
    <g class="cls-6">
      <g>
        <polygon class="cls-4" points="190.25 108.65 190.44 102.35 174.65 84.12 174.73 81.12 174.55 80.94 174.46 84.18 190.26 102.41 190.07 108.72 199.27 118.47 199.4 118.35 190.25 108.65"/>
        <path class="cls-4" d="M199.27,118.36c-.21.19-.21.52-.02.73s.52.22.73.02.21-.52.02-.73-.52-.22-.73-.02ZM199.86,118.98c-.13.13-.35.12-.48-.02s-.12-.35.01-.48.35-.12.48.02.12.35-.01.48Z"/>
      </g>
      <g>
        <path class="cls-4" d="M219.3,129.98l-14.78-15.68-6.6-.23-6.29-6.68-2.55-.1-5.76-6.11-.13.12,5.81,6.17,2.55.1,6.29,6.68,6.6.23,14.71,15.61s.1-.07.15-.1Z"/>
        <path class="cls-4" d="M183.29,101.31c-.21.19-.53.18-.73-.02s-.19-.54.02-.73.53-.18.73.02.19.54-.02.73ZM182.71,100.68c-.13.13-.14.34-.01.48s.34.14.48.02.14-.34.01-.48-.34-.14-.48-.02Z"/>
      </g>
      <g>
        <path class="cls-4" d="M203.17,118.47c-.21.19-.53.18-.73-.02s-.19-.54.02-.73.53-.18.73.02.19.54-.02.73ZM202.58,117.85c-.13.13-.14.34-.01.48s.34.14.48.02.14-.34.01-.48-.34-.14-.48-.02Z"/>
        <path class="cls-4" d="M212.41,128.13l-9.23-9.78-.13.12,9.2,9.76s.1-.07.15-.1Z"/>
      </g>
    </g>
    <g class="cls-6">
      <g>
        <path class="cls-4" d="M263.41,55.66c.2-.2.52-.21.73-.01s.21.53.02.73-.52.21-.73.01-.21-.53-.02-.73ZM264.03,56.26c.13-.13.12-.35-.01-.48s-.35-.13-.48,0-.12.35.01.48.35.13.48,0Z"/>
        <polygon class="cls-4" points="253.8 46.54 247.5 46.66 230.96 30.45 227.96 30.49 227.79 30.32 231.03 30.27 247.57 46.48 253.87 46.36 263.53 55.66 263.4 55.79 253.8 46.54"/>
      </g>
      <g>
        <path class="cls-4" d="M246.54,39.5c.2-.2.19-.53-.02-.73s-.53-.19-.73.01-.19.53.02.73.53.19.73-.01ZM245.92,38.91c.13-.13.34-.14.48,0s.14.34.01.48-.34.14-.48,0-.14-.34-.01-.48Z"/>
        <path class="cls-4" d="M274.82,75.82l-15.52-14.95-.16-6.6-6.61-6.37-.07-2.55-6.05-5.83.12-.13,6.1,5.88.07,2.55,6.61,6.37.16,6.6,15.44,14.88s-.07.1-.11.15Z"/>
      </g>
      <g>
        <path class="cls-4" d="M263.48,59.56c.2-.2.19-.53-.02-.73s-.53-.19-.73.01-.19.53.02.73.53.19.73-.01ZM262.87,58.97c.13-.13.34-.14.48,0s.14.34.01.48-.34.14-.48,0-.14-.34-.01-.48Z"/>
        <path class="cls-4" d="M273.04,68.91l-9.68-9.33.12-.13,9.66,9.31s-.07.1-.1.15Z"/>
      </g>
    </g>
    <g class="cls-6">
      <g>
        <path class="cls-4" d="M265.91,97.94c.23.23.23.62,0,.85s-.62.24-.85,0-.23-.62,0-.85.62-.24.85,0ZM265.2,98.65c.15.15.4.15.56,0s.16-.4,0-.56-.4-.15-.56,0-.16.4,0,.56Z"/>
        <path class="cls-4" d="M280.48,77.89h-.01s-.05,5.37-.05,5.37l-14.67,14.67.15.15,14.73-14.73.05-5.31c-.07-.05-.13-.09-.2-.14Z"/>
      </g>
      <g>
        <path class="cls-4" d="M244.9,121.89c.23.23.62.23.85,0s.24-.62,0-.85-.62-.23-.85,0-.24.62,0,.85ZM245.6,121.18c.15.15.15.4,0,.56s-.4.16-.56,0-.15-.4,0-.56.4-.16.56,0Z"/>
        <path class="cls-4" d="M224.84,136.47h.01s5.36-.06,5.36-.06l14.67-14.67.15.15-14.73,14.73-5.31.05c-.05-.07-.09-.13-.14-.2Z"/>
      </g>
      <g>
        <path class="cls-4" d="M261.15,108.81c.2.2.52.21.73.01s.21-.53.02-.73-.52-.21-.73-.01-.21.53-.02.73ZM261.77,108.22c.13.13.12.35-.01.48s-.35.13-.48,0-.12-.35.01-.48.35-.13.48,0Z"/>
        <polygon class="cls-4" points="251.54 117.93 245.24 117.81 228.7 134.03 222.74 133.98 222.57 134.15 228.77 134.21 245.31 117.99 251.61 118.11 261.26 108.81 261.14 108.68 251.54 117.93"/>
      </g>
      <g>
        <path class="cls-4" d="M251.89,114.3c.2.2.21.52.01.73s-.53.21-.73.02-.21-.52-.01-.73.53-.21.73-.02ZM251.29,114.92c.13.13.35.12.48-.01s.13-.35,0-.48-.35-.12-.48.01-.13.35,0,.48Z"/>
        <polygon class="cls-4" points="261.01 104.69 260.89 98.39 277.1 81.85 277.05 75.89 277.23 75.72 277.28 81.92 261.07 98.46 261.19 104.76 251.89 114.42 251.76 114.29 261.01 104.69"/>
      </g>
    </g>
  </g>
</svg>