<?xml version="1.0" encoding="UTF-8"?>
<svg id="Layer_1" data-name="Layer 1" xmlns="http://www.w3.org/2000/svg" viewBox="0 0 575.3 165.91">
  <defs>
    <style>
      .cls-1 {
        letter-spacing: .08em;
      }

      .cls-2, .cls-3 {
        fill: #000;
      }

      .cls-2, .cls-4 {
        stroke-width: 0px;
      }

      .cls-5 {
        letter-spacing: .07em;
      }

      .cls-6 {
        opacity: .2;
      }

      .cls-3 {
        font-family: Hellix-Medium, Hellix;
        font-size: 66.57px;
        font-weight: 500;
      }

      .cls-7 {
        letter-spacing: .03em;
      }

      .cls-4 {
        fill: #fff;
      }

      .cls-8 {
        letter-spacing: .06em;
      }
    </style>
  </defs>
  <text class="cls-3" transform="translate(174.72 106.21)"><tspan class="cls-5" x="0" y="0">E</tspan><tspan class="cls-8" x="39.87" y="0">N</tspan><tspan class="cls-1" x="89.78" y="0">YUT</tspan><tspan class="cls-7" x="232.1" y="0">E</tspan><tspan class="cls-1" x="269.31" y="0">CH</tspan></text>
  <g>
    <path class="cls-2" d="M93.35,143.49c-7,0-14-2.66-19.32-7.99l-31.58-31.58c-10.65-10.66-10.65-27.99,0-38.65l1.12-1.12c1.18-1.18,3.09-1.18,4.27,0l6.93,6.93c1.18,1.18,1.18,3.09,0,4.27l-1.12,1.12c-4.48,4.48-4.48,11.77,0,16.24l31.58,31.58c4.48,4.48,11.77,4.48,16.24,0l31.58-31.58c4.48-4.48,4.48-11.77,0-16.24l-31.58-31.58c-4.48-4.48-11.77-4.48-16.24,0l-16.93,16.93c-1.18,1.18-3.09,1.18-4.27,0l-6.93-6.93c-1.18-1.18-1.18-3.09,0-4.27l16.93-16.93c10.66-10.66,27.99-10.65,38.65,0l31.58,31.58c10.65,10.66,10.65,27.99,0,38.65l-31.58,31.58c-5.33,5.33-12.33,7.99-19.32,7.99Z"/>
    <g class="cls-6">
      <g>
        <polygon class="cls-4" points="58.02 112.01 58.21 105.71 42.42 87.48 42.5 84.48 42.32 84.3 42.23 87.55 58.03 105.78 57.84 112.08 67.04 121.84 67.17 121.71 58.02 112.01"/>
        <path class="cls-4" d="M67.04,121.73c-.21.19-.21.52-.02.73s.52.22.73.02.21-.52.02-.73-.52-.22-.73-.02ZM67.63,122.35c-.13.13-.35.12-.48-.02s-.12-.35.01-.48.35-.12.48.02.12.35-.01.48Z"/>
      </g>
      <g>
        <path class="cls-4" d="M87.07,133.35l-14.78-15.68-6.6-.23-6.29-6.68-2.55-.1-5.76-6.11-.13.12,5.81,6.17,2.55.1,6.29,6.68,6.6.23,14.71,15.61s.1-.07.15-.1Z"/>
        <path class="cls-4" d="M51.06,104.67c-.21.19-.53.18-.73-.02s-.19-.54.02-.73.53-.18.73.02.19.54-.02.73ZM50.48,104.05c-.13.13-.14.34-.01.48s.34.14.48.02.14-.34.01-.48-.34-.14-.48-.02Z"/>
      </g>
      <g>
        <path class="cls-4" d="M70.94,121.84c-.21.19-.53.18-.73-.02s-.19-.54.02-.73.53-.18.73.02.19.54-.02.73ZM70.35,121.21c-.13.13-.14.34-.01.48s.34.14.48.02.14-.34.01-.48-.34-.14-.48-.02Z"/>
        <path class="cls-4" d="M80.18,131.5l-9.23-9.78-.13.12,9.2,9.76s.1-.07.15-.1Z"/>
      </g>
    </g>
    <g class="cls-6">
      <g>
        <path class="cls-4" d="M131.18,59.03c.2-.2.52-.21.73-.01s.21.53.02.73-.52.21-.73.01-.21-.53-.02-.73ZM131.8,59.62c.13-.13.12-.35-.01-.48s-.35-.13-.48,0-.12.35.01.48.35.13.48,0Z"/>
        <polygon class="cls-4" points="121.57 49.9 115.27 50.02 98.73 33.81 95.73 33.86 95.56 33.68 98.8 33.63 115.34 49.84 121.64 49.72 131.3 59.02 131.17 59.15 121.57 49.9"/>
      </g>
      <g>
        <path class="cls-4" d="M114.31,42.87c.2-.2.19-.53-.02-.73s-.53-.19-.73.01-.19.53.02.73.53.19.73-.01ZM113.69,42.27c.13-.13.34-.14.48,0s.14.34.01.48-.34.14-.48,0-.14-.34-.01-.48Z"/>
        <path class="cls-4" d="M142.59,79.18l-15.52-14.95-.16-6.6-6.61-6.37-.07-2.55-6.05-5.83.12-.13,6.1,5.88.07,2.55,6.61,6.37.16,6.6,15.44,14.88s-.07.1-.11.15Z"/>
      </g>
      <g>
        <path class="cls-4" d="M131.25,62.93c.2-.2.19-.53-.02-.73s-.53-.19-.73.01-.19.53.02.73.53.19.73-.01ZM130.64,62.33c.13-.13.34-.14.48,0s.14.34.01.48-.34.14-.48,0-.14-.34-.01-.48Z"/>
        <path class="cls-4" d="M140.81,72.28l-9.68-9.33.12-.13,9.66,9.31s-.07.1-.1.15Z"/>
      </g>
    </g>
    <g class="cls-6">
      <g>
        <path class="cls-4" d="M133.68,101.3c.23.23.23.62,0,.85s-.62.24-.85,0-.23-.62,0-.85.62-.24.85,0ZM132.97,102.01c.15.15.4.15.56,0s.16-.4,0-.56-.4-.15-.56,0-.16.4,0,.56Z"/>
        <path class="cls-4" d="M148.25,81.25h-.01s-.05,5.37-.05,5.37l-14.67,14.67.15.15,14.73-14.73.05-5.31c-.07-.05-.13-.09-.2-.14Z"/>
      </g>
      <g>
        <path class="cls-4" d="M112.67,125.26c.23.23.62.23.85,0s.24-.62,0-.85-.62-.23-.85,0-.24.62,0,.85ZM113.37,124.55c.15.15.15.4,0,.56s-.4.16-.56,0-.15-.4,0-.56.4-.16.56,0Z"/>
        <path class="cls-4" d="M92.61,139.84h.01s5.36-.06,5.36-.06l14.67-14.67.15.15-14.73,14.73-5.31.05c-.05-.07-.09-.13-.14-.2Z"/>
      </g>
      <g>
        <path class="cls-4" d="M128.92,112.17c.2.2.52.21.73.01s.21-.53.02-.73-.52-.21-.73-.01-.21.53-.02.73ZM129.54,111.58c.13.13.12.35-.01.48s-.35.13-.48,0-.12-.35.01-.48.35-.13.48,0Z"/>
        <polygon class="cls-4" points="119.31 121.3 113.01 121.18 96.47 137.39 90.51 137.34 90.34 137.52 96.54 137.57 113.08 121.36 119.38 121.48 129.04 112.18 128.91 112.05 119.31 121.3"/>
      </g>
      <g>
        <path class="cls-4" d="M119.66,117.67c.2.2.21.52.01.73s-.53.21-.73.02-.21-.52-.01-.73.53-.21.73-.02ZM119.06,118.29c.13.13.35.12.48-.01s.13-.35,0-.48-.35-.12-.48.01-.13.35,0,.48Z"/>
        <polygon class="cls-4" points="128.78 108.06 128.66 101.75 144.87 85.22 144.82 79.26 145 79.09 145.05 85.29 128.84 101.82 128.96 108.13 119.66 117.78 119.53 117.66 128.78 108.06"/>
      </g>
    </g>
  </g>
</svg>