<?xml version="1.0" encoding="UTF-8"?>
<svg id="Layer_1" data-name="Layer 1" xmlns="http://www.w3.org/2000/svg" viewBox="0 0 154.99 154.96">
  <defs>
    <style>
      .cls-1 {
        fill: #000;
      }

      .cls-1, .cls-2 {
        stroke-width: 0px;
      }

      .cls-3 {
        opacity: .2;
      }

      .cls-2 {
        fill: #fff;
      }
    </style>
  </defs>
  <path class="cls-1" d="M77.68,139.04c-7,0-14-2.66-19.32-7.99l-31.58-31.58c-10.65-10.66-10.65-27.99,0-38.65l1.12-1.12c1.18-1.18,3.09-1.18,4.27,0l6.93,6.93c1.18,1.18,1.18,3.09,0,4.27l-1.12,1.12c-4.48,4.48-4.48,11.77,0,16.24l31.58,31.58c4.48,4.48,11.77,4.48,16.24,0l31.58-31.58c4.48-4.48,4.48-11.77,0-16.24l-31.58-31.58c-4.48-4.48-11.77-4.48-16.24,0l-16.93,16.93c-1.18,1.18-3.09,1.18-4.27,0l-6.93-6.93c-1.18-1.18-1.18-3.09,0-4.27l16.93-16.93c10.66-10.66,27.99-10.65,38.65,0l31.58,31.58c10.65,10.66,10.65,27.99,0,38.65l-31.58,31.58c-5.33,5.33-12.33,7.99-19.32,7.99Z"/>
  <g class="cls-3">
    <g>
      <polygon class="cls-2" points="42.36 107.57 42.55 101.26 26.75 83.03 26.84 80.03 26.66 79.86 26.57 83.1 42.37 101.33 42.18 107.63 51.37 117.39 51.5 117.27 42.36 107.57"/>
      <path class="cls-2" d="M51.38,117.28c-.21.19-.21.52-.02.73s.52.22.73.02.21-.52.02-.73-.52-.22-.73-.02ZM51.97,117.9c-.13.13-.35.12-.48-.02s-.12-.35.01-.48.35-.12.48.02.12.35-.01.48Z"/>
    </g>
    <g>
      <path class="cls-2" d="M71.41,128.9l-14.78-15.68-6.6-.23-6.29-6.68-2.55-.1-5.76-6.11-.13.12,5.81,6.17,2.55.1,6.29,6.68,6.6.23,14.71,15.61s.1-.07.15-.1Z"/>
      <path class="cls-2" d="M35.4,100.22c-.21.19-.53.18-.73-.02s-.19-.54.02-.73.53-.18.73.02.19.54-.02.73ZM34.81,99.6c-.13.13-.14.34-.01.48s.34.14.48.02.14-.34.01-.48-.34-.14-.48-.02Z"/>
    </g>
    <g>
      <path class="cls-2" d="M55.28,117.39c-.21.19-.53.18-.73-.02s-.19-.54.02-.73.53-.18.73.02.19.54-.02.73ZM54.69,116.77c-.13.13-.14.34-.01.48s.34.14.48.02.14-.34.01-.48-.34-.14-.48-.02Z"/>
      <path class="cls-2" d="M64.52,127.05l-9.23-9.78-.13.12,9.2,9.76s.1-.07.15-.1Z"/>
    </g>
  </g>
  <g class="cls-3">
    <g>
      <polygon class="cls-2" points="106.4 45.04 100.09 45.09 82.21 28.91 79.2 28.92 79.03 28.75 82.28 28.73 100.16 44.91 106.47 44.86 116.02 54.26 115.9 54.39 106.4 45.04"/>
      <path class="cls-2" d="M115.91,54.26c.2-.2.53-.2.73,0s.21.53,0,.73-.53.2-.73,0-.21-.53,0-.73ZM116.52,54.86c.13-.13.13-.35,0-.48s-.35-.13-.48,0-.13.35,0,.48.35.13.48,0Z"/>
    </g>
    <g>
      <path class="cls-2" d="M127.1,74.54l-15.36-15.12-.09-6.6-6.54-6.44-.04-2.55-5.99-5.89.13-.13,6.04,5.95.04,2.55,6.54,6.44.09,6.6,15.28,15.05s-.07.1-.11.14Z"/>
      <path class="cls-2" d="M99.21,37.92c.2-.2.19-.53,0-.73s-.53-.2-.73,0-.19.53,0,.73.53.2.73,0ZM98.6,37.32c.13-.13.34-.13.48,0s.14.34,0,.48-.34.13-.48,0-.14-.34,0-.48Z"/>
    </g>
    <g>
      <path class="cls-2" d="M115.94,58.17c.2-.2.19-.53,0-.73s-.53-.2-.73,0-.19.53,0,.73.53.2.73,0ZM115.33,57.56c.13-.13.34-.13.48,0s.14.34,0,.48-.34.13-.48,0-.14-.34,0-.48Z"/>
      <path class="cls-2" d="M125.4,67.62l-9.58-9.43.13-.13,9.56,9.41s-.07.1-.1.15Z"/>
    </g>
  </g>
  <g class="cls-3">
    <g>
      <path class="cls-2" d="M118.01,96.86c.23.23.23.62,0,.85s-.62.24-.85,0-.23-.62,0-.85.62-.24.85,0ZM117.31,97.56c.15.15.4.15.56,0s.16-.4,0-.56-.4-.15-.56,0-.16.4,0,.56Z"/>
      <path class="cls-2" d="M132.59,76.81h-.01s-.05,5.37-.05,5.37l-14.67,14.67.15.15,14.73-14.73.05-5.31c-.07-.05-.13-.09-.2-.14Z"/>
    </g>
    <g>
      <path class="cls-2" d="M97,120.81c.23.23.62.23.85,0s.24-.62,0-.85-.62-.23-.85,0-.24.62,0,.85ZM97.71,120.1c.15.15.15.4,0,.56s-.4.16-.56,0-.15-.4,0-.56.4-.16.56,0Z"/>
      <path class="cls-2" d="M76.95,135.39h.01s5.36-.06,5.36-.06l14.67-14.67.15.15-14.73,14.73-5.31.05c-.05-.07-.09-.13-.14-.2Z"/>
    </g>
    <g>
      <path class="cls-2" d="M113.26,107.73c.2.2.52.21.73.01s.21-.53.02-.73-.52-.21-.73-.01-.21.53-.02.73ZM113.88,107.13c.13.13.12.35-.01.48s-.35.13-.48,0-.12-.35.01-.48.35-.13.48,0Z"/>
      <polygon class="cls-2" points="103.65 116.85 97.34 116.73 80.81 132.94 74.85 132.89 74.68 133.07 80.88 133.12 97.41 116.91 103.72 117.03 113.37 107.73 113.25 107.6 103.65 116.85"/>
    </g>
    <g>
      <path class="cls-2" d="M104,113.22c.2.2.21.52.01.73s-.53.21-.73.02-.21-.52-.01-.73.53-.21.73-.02ZM103.4,113.84c.13.13.35.12.48-.01s.13-.35,0-.48-.35-.12-.48.01-.13.35,0,.48Z"/>
      <polygon class="cls-2" points="113.12 103.61 113 97.3 129.21 80.77 129.16 74.81 129.34 74.64 129.39 80.84 113.18 97.37 113.3 103.68 104 113.33 103.87 113.21 113.12 103.61"/>
    </g>
  </g>
</svg>